<svg width="94" height="24" viewBox="0 0 94 24" fill="none" xmlns="http://www.w3.org/2000/svg">
<path fill-rule="evenodd" clip-rule="evenodd" d="M12.4344 15.9743C12.0256 16.2654 11.3536 16.1798 11.3729 15.572C11.3964 14.8272 11.8287 13.954 11.6789 13.3719C11.5227 12.7726 10.8978 12.6891 10.2172 12.6827C7.55479 12.6613 3.848 12.3767 1.52376 11.1247C0.46437 10.5532 0.0513148 9.68004 -4.95201e-05 10.8079C-0.0813764 12.6014 1.82767 13.3483 3.23377 13.8876L1.74634 22.9791C1.68213 23.3729 1.79556 23.8973 2.27068 23.8951L4.48791 23.8866H16.8132C25.9432 23.7924 27.5955 13.0637 22.0931 11.4692C28.7683 8.09203 24.5842 0.162654 16.7747 0.0920278L6.43762 0C5.63933 0.0342429 5.44243 0.308186 5.36325 0.82825L4.08128 9.24559C5.90899 9.41466 9.82981 9.00375 11.6276 8.37239C12.4109 8.09631 12.7554 7.7282 12.8303 7.26592L13.2006 5.02087C13.4232 3.67683 14.5296 4.53933 15.1738 5.18352L19.3579 9.37186C20.3295 10.3007 19.7667 10.7373 19.2616 11.0968L12.4344 15.9743Z" fill="#0197FF"/>
<path d="M29.6993 11.8117C31.8887 11.5805 33.8363 11.4628 35.5441 11.4628C36.3338 11.4628 36.8989 11.7004 37.2413 12.1777C37.5837 12.6549 37.6436 13.2863 37.4232 14.076L35.5184 20.8668H32.8197L32.8903 19.9957C32.244 20.3553 31.6105 20.6207 30.9877 20.7876C30.3649 20.9567 29.8577 21.0401 29.4639 21.0401H28.8539C28.0642 21.0401 27.4992 20.8026 27.1567 20.3253C26.8143 19.8502 26.7544 19.2167 26.9748 18.427L27.1953 17.6437C27.4157 16.8539 27.8309 16.2226 28.4409 15.7453C29.0508 15.2702 29.7506 15.0305 30.5382 15.0305H34.1081L34.3028 14.335C34.352 14.1616 34.3349 14.0161 34.2515 13.9005C34.168 13.7849 34.0396 13.7271 33.8641 13.7271C33.1086 13.7271 32.2675 13.7614 31.3365 13.832C30.4055 13.9026 29.6565 13.954 29.0893 13.9882L29.6993 11.8117ZM31.0155 18.6025C31.6319 18.6025 32.3595 18.4869 33.2028 18.2536L33.496 17.2092H30.9706C30.7972 17.2092 30.6345 17.267 30.4869 17.3826C30.3371 17.4981 30.2386 17.6437 30.1915 17.817L30.1423 17.9904C30.0931 18.1637 30.1102 18.3093 30.1937 18.4248C30.2771 18.5404 30.4055 18.5982 30.581 18.5982H31.0155V18.6025Z" fill="#0197FF"/>
<path d="M43.6191 13.9882C43.0027 13.9882 42.275 14.1038 41.4318 14.3371L39.5998 20.8668H36.5543L39.1418 11.6383H41.8406L41.7699 12.5094C42.4163 12.1498 43.0498 11.8844 43.6726 11.7175C44.2954 11.5484 44.8026 11.465 45.1964 11.465H45.9797C46.7694 11.465 47.3344 11.7025 47.6768 12.1798C48.0193 12.657 48.0792 13.2884 47.8588 14.0781L45.954 20.8689H42.9107L44.6678 14.6003C44.717 14.427 44.6999 14.2814 44.6164 14.1659C44.5329 14.0503 44.4045 13.9925 44.229 13.9925H43.6191V13.9882Z" fill="#0197FF"/>
<path d="M57.2392 11.0262C56.9096 11.0027 56.4709 10.9684 55.9273 10.9213C55.3837 10.8743 54.9085 10.8507 54.5019 10.8507C54.0953 10.8507 53.817 10.9085 53.6694 11.0241C53.5217 11.1396 53.4211 11.2852 53.374 11.4585L53.13 12.3296H56.0043L55.3451 14.6795H52.4709L50.7373 20.8625H47.6897L49.4232 14.6795H48.2033L48.8625 12.3296H50.0824L50.4248 11.1097C50.6453 10.32 51.0605 9.6886 51.6704 9.21134C52.2804 8.73622 52.9802 8.49652 53.7678 8.49652C54.4762 8.49652 55.2189 8.52006 55.9957 8.56715C56.7726 8.61423 57.4061 8.64847 57.8984 8.67202L57.2392 11.0262Z" fill="#0197FF"/>
<path d="M64.5436 11.0262C64.214 11.0027 63.7775 10.9684 63.2317 10.9213C62.6881 10.8743 62.213 10.8507 61.8063 10.8507C61.3997 10.8507 61.1215 10.9085 60.9738 11.0241C60.824 11.1396 60.7255 11.2852 60.6785 11.4585L60.4345 12.3296H63.3087L62.6496 14.6795H59.7753L58.0418 20.8625H54.9941L56.7277 14.6795H55.5078L56.167 12.3296H57.3869L57.7293 11.1097C57.9497 10.32 58.3649 9.6886 58.9749 9.21134C59.5848 8.73622 60.2847 8.49652 61.0723 8.49652C61.7807 8.49652 62.5233 8.52006 63.3002 8.56715C64.0771 8.61423 64.7106 8.64847 65.2028 8.67202L64.5436 11.0262Z" fill="#0197FF"/>
<path d="M64.6485 20.8668L63.8181 23.8267H60.7705L64.1884 11.6362H66.8871L66.8165 12.5072C67.4629 12.1477 68.0963 11.8823 68.7191 11.7154C69.3419 11.5463 69.8492 11.4628 70.2429 11.4628H71.0263C71.816 11.4628 72.381 11.7004 72.7234 12.1777C73.0658 12.6549 73.1258 13.2863 72.9053 14.076L71.7817 18.0803C71.5378 18.9513 71.099 19.634 70.4677 20.1263C69.8363 20.6207 69.0851 20.8668 68.2141 20.8668H64.6485ZM68.6678 13.9882C68.0514 13.9882 67.3237 14.1038 66.4805 14.3371L65.3077 18.5169H67.9208C68.3853 18.5169 68.6828 18.2857 68.8133 17.8213L69.7165 14.6003C69.7657 14.427 69.7486 14.2814 69.6651 14.1659C69.5816 14.0503 69.4532 13.9925 69.2777 13.9925H68.6678V13.9882Z" fill="#0197FF"/>
<path d="M75.0154 11.8117C77.2049 11.5805 79.1524 11.4628 80.8603 11.4628C81.65 11.4628 82.215 11.7004 82.5574 12.1777C82.8999 12.6549 82.9598 13.2863 82.7394 14.076L80.8346 20.8668H78.1358L78.2065 19.9957C77.5601 20.3553 76.9266 20.6207 76.3038 20.7876C75.681 20.9545 75.1738 21.0401 74.78 21.0401H74.1701C73.3803 21.0401 72.8153 20.8026 72.4729 20.3253C72.1305 19.8502 72.0706 19.2167 72.291 18.427L72.5114 17.6437C72.7319 16.8539 73.1471 16.2226 73.757 15.7453C74.367 15.2702 75.0668 15.0305 75.8544 15.0305H79.4242L79.619 14.335C79.6682 14.1616 79.6511 14.0161 79.5676 13.9005C79.4841 13.7849 79.3557 13.7271 79.1802 13.7271C78.4248 13.7271 77.5837 13.7614 76.6527 13.832C75.7217 13.9026 74.9726 13.954 74.4055 13.9882L75.0154 11.8117ZM76.3317 18.6025C76.9459 18.6025 77.6757 18.4869 78.5189 18.2536L78.8121 17.2092H76.2867C76.1134 17.2092 75.9507 17.267 75.803 17.3826C75.6532 17.4981 75.5548 17.6437 75.5077 17.817L75.4585 17.9904C75.4092 18.1637 75.4264 18.3093 75.5098 18.4248C75.5933 18.5404 75.7217 18.5982 75.8972 18.5982H76.3317V18.6025Z" fill="#0197FF"/>
<path d="M83.2553 24C82.6389 24 81.9005 23.9422 81.0402 23.8266L81.6758 21.5623H83.2424C83.6833 21.5623 84.0043 21.4403 84.2076 21.1964C84.4088 20.9524 84.4794 20.61 84.4174 20.1691L83.2403 11.6362H86.4612L86.977 17.5559L90.4655 11.6362H93.6865L87.5185 21.2135C86.9235 22.1295 86.2943 22.825 85.6287 23.2937C84.9631 23.7646 84.1712 24 83.2553 24Z" fill="#0197FF"/>
</svg>
